{
	"asset":{
		"generator":"Khronos glTF Blender I/O v3.6.28",
		"version":"2.0"
	},
	"scene":0,
	"scenes":[
		{
			"name":"Scene",
			"nodes":[
				0
			]
		}
	],
	"nodes":[
		{
			"mesh":0,
			"name":"Building Sky_big_color01"
		}
	],
	"materials":[
		{
			"doubleSided":true,
			"name":"Material.001",
			"pbrMetallicRoughness":{
				"baseColorTexture":{
					"index":0
				},
				"metallicFactor":0,
				"roughnessFactor":0.5
			}
		}
	],
	"meshes":[
		{
			"name":"Cube.009",
			"primitives":[
				{
					"attributes":{
						"POSITION":0,
						"NORMAL":1,
						"TEXCOORD_0":2
					},
					"indices":3,
					"material":0
				}
			]
		}
	],
	"textures":[
		{
			"sampler":0,
			"source":0
		}
	],
	"images":[
		{
			"bufferView":4,
			"mimeType":"image/png",
			"name":"Building Sky_big_color03"
		}
	],
	"accessors":[
		{
			"bufferView":0,
			"componentType":5126,
			"count":785,
			"max":[
				65.08057403564453,
				74.40702056884766,
				18.07121467590332
			],
			"min":[
				24.101354598999023,
				-1.1733540304703638e-05,
				-18.818134307861328
			],
			"type":"VEC3"
		},
		{
			"bufferView":1,
			"componentType":5126,
			"count":785,
			"type":"VEC3"
		},
		{
			"bufferView":2,
			"componentType":5126,
			"count":785,
			"type":"VEC2"
		},
		{
			"bufferView":3,
			"componentType":5123,
			"count":1344,
			"type":"SCALAR"
		}
	],
	"bufferViews":[
		{
			"buffer":0,
			"byteLength":9420,
			"byteOffset":0,
			"target":34962
		},
		{
			"buffer":0,
			"byteLength":9420,
			"byteOffset":9420,
			"target":34962
		},
		{
			"buffer":0,
			"byteLength":6280,
			"byteOffset":18840,
			"target":34962
		},
		{
			"buffer":0,
			"byteLength":2688,
			"byteOffset":25120,
			"target":34963
		},
		{
			"buffer":0,
			"byteLength":2173,
			"byteOffset":27808
		}
	],
	"samplers":[
		{
			"magFilter":9729,
			"minFilter":9987
		}
	],
	"buffers":[
		{
			"byteLength":29984,
			"uri":"data:application/octet-stream;base64,"
		}
	]
}
