{
	"asset":{
		"generator":"Khronos glTF Blender I/O v3.6.28",
		"version":"2.0"
	},
	"scene":0,
	"scenes":[
		{
			"name":"Scene",
			"nodes":[
				0
			]
		}
	],
	"nodes":[
		{
			"mesh":0,
			"name":"Building_Residential_color01"
		}
	],
	"materials":[
		{
			"doubleSided":true,
			"name":"Material.002",
			"pbrMetallicRoughness":{
				"baseColorTexture":{
					"index":0
				},
				"metallicFactor":0,
				"roughnessFactor":0.5
			}
		}
	],
	"meshes":[
		{
			"name":"Cube.013",
			"primitives":[
				{
					"attributes":{
						"POSITION":0,
						"NORMAL":1,
						"TEXCOORD_0":2
					},
					"indices":3,
					"material":0
				}
			]
		}
	],
	"textures":[
		{
			"sampler":0,
			"source":0
		}
	],
	"images":[
		{
			"bufferView":4,
			"mimeType":"image/png",
			"name":"Building_Residential_color02"
		}
	],
	"accessors":[
		{
			"bufferView":0,
			"componentType":5126,
			"count":2390,
			"max":[
				4.348918914794922,
				57.71915817260742,
				18.824420928955078
			],
			"min":[
				-44.33936309814453,
				-4.064914264745312e-06,
				-19.170326232910156
			],
			"type":"VEC3"
		},
		{
			"bufferView":1,
			"componentType":5126,
			"count":2390,
			"type":"VEC3"
		},
		{
			"bufferView":2,
			"componentType":5126,
			"count":2390,
			"type":"VEC2"
		},
		{
			"bufferView":3,
			"componentType":5123,
			"count":3624,
			"type":"SCALAR"
		}
	],
	"bufferViews":[
		{
			"buffer":0,
			"byteLength":28680,
			"byteOffset":0,
			"target":34962
		},
		{
			"buffer":0,
			"byteLength":28680,
			"byteOffset":28680,
			"target":34962
		},
		{
			"buffer":0,
			"byteLength":19120,
			"byteOffset":57360,
			"target":34962
		},
		{
			"buffer":0,
			"byteLength":7248,
			"byteOffset":76480,
			"target":34963
		},
		{
			"buffer":0,
			"byteLength":1986,
			"byteOffset":83728
		}
	],
	"samplers":[
		{
			"magFilter":9729,
			"minFilter":9987
		}
	],
	"buffers":[
		{
			"byteLength":85716,
			"uri":"data:application/octet-stream;base64,"
		}
	]
}
