{
	"asset":{
		"generator":"Khronos glTF Blender I/O v3.6.28",
		"version":"2.0"
	},
	"scene":0,
	"scenes":[
		{
			"name":"Scene",
			"nodes":[
				0
			]
		}
	],
	"nodes":[
		{
			"mesh":0,
			"name":"Building_House_01_color01",
			"rotation":[
				0.70710688829422,
				0,
				0,
				0.7071066498756409
			],
			"translation":[
				22.295486450195312,
				0,
				0
			]
		}
	],
	"materials":[
		{
			"doubleSided":true,
			"name":"Material.002",
			"pbrMetallicRoughness":{
				"baseColorTexture":{
					"index":0
				},
				"metallicFactor":0,
				"roughnessFactor":0.5
			}
		}
	],
	"meshes":[
		{
			"name":"Cube.024",
			"primitives":[
				{
					"attributes":{
						"POSITION":0,
						"NORMAL":1,
						"TEXCOORD_0":2
					},
					"indices":3,
					"material":0
				}
			]
		}
	],
	"textures":[
		{
			"sampler":0,
			"source":0
		}
	],
	"images":[
		{
			"bufferView":4,
			"mimeType":"image/png",
			"name":"Building_House_01_color03"
		}
	],
	"accessors":[
		{
			"bufferView":0,
			"componentType":5126,
			"count":1674,
			"max":[
				9.506463050842285,
				6.1681365966796875,
				0.0007832050323486328
			],
			"min":[
				-8.385174751281738,
				-6.434685230255127,
				-9.052836418151855
			],
			"type":"VEC3"
		},
		{
			"bufferView":1,
			"componentType":5126,
			"count":1674,
			"type":"VEC3"
		},
		{
			"bufferView":2,
			"componentType":5126,
			"count":1674,
			"type":"VEC2"
		},
		{
			"bufferView":3,
			"componentType":5123,
			"count":2616,
			"type":"SCALAR"
		}
	],
	"bufferViews":[
		{
			"buffer":0,
			"byteLength":20088,
			"byteOffset":0,
			"target":34962
		},
		{
			"buffer":0,
			"byteLength":20088,
			"byteOffset":20088,
			"target":34962
		},
		{
			"buffer":0,
			"byteLength":13392,
			"byteOffset":40176,
			"target":34962
		},
		{
			"buffer":0,
			"byteLength":5232,
			"byteOffset":53568,
			"target":34963
		},
		{
			"buffer":0,
			"byteLength":2184,
			"byteOffset":58800
		}
	],
	"samplers":[
		{
			"magFilter":9729,
			"minFilter":9987
		}
	],
	"buffers":[
		{
			"byteLength":60984,
			"uri":"data:application/octet-stream;base64,"
		}
	]
}
