{
	"asset":{
		"generator":"Khronos glTF Blender I/O v3.6.28",
		"version":"2.0"
	},
	"scene":0,
	"scenes":[
		{
			"name":"Scene",
			"nodes":[
				0
			]
		}
	],
	"nodes":[
		{
			"mesh":0,
			"name":"Building_House_03_color01",
			"rotation":[
				0.70710688829422,
				0,
				0,
				0.7071066498756409
			]
		}
	],
	"materials":[
		{
			"doubleSided":true,
			"name":"Material.001",
			"pbrMetallicRoughness":{
				"baseColorTexture":{
					"index":0
				},
				"metallicFactor":0,
				"roughnessFactor":0.5
			}
		}
	],
	"meshes":[
		{
			"name":"Cylinder.000",
			"primitives":[
				{
					"attributes":{
						"POSITION":0,
						"NORMAL":1,
						"TEXCOORD_0":2
					},
					"indices":3,
					"material":0
				}
			]
		}
	],
	"textures":[
		{
			"sampler":0,
			"source":0
		}
	],
	"images":[
		{
			"bufferView":4,
			"mimeType":"image/png",
			"name":"Building_House_03_color02"
		}
	],
	"accessors":[
		{
			"bufferView":0,
			"componentType":5126,
			"count":3014,
			"max":[
				8.7044677734375,
				7.023993968963623,
				0.06255054473876953
			],
			"min":[
				-8.55053424835205,
				-7.3837690353393555,
				-9.548267364501953
			],
			"type":"VEC3"
		},
		{
			"bufferView":1,
			"componentType":5126,
			"count":3014,
			"type":"VEC3"
		},
		{
			"bufferView":2,
			"componentType":5126,
			"count":3014,
			"type":"VEC2"
		},
		{
			"bufferView":3,
			"componentType":5123,
			"count":4704,
			"type":"SCALAR"
		}
	],
	"bufferViews":[
		{
			"buffer":0,
			"byteLength":36168,
			"byteOffset":0,
			"target":34962
		},
		{
			"buffer":0,
			"byteLength":36168,
			"byteOffset":36168,
			"target":34962
		},
		{
			"buffer":0,
			"byteLength":24112,
			"byteOffset":72336,
			"target":34962
		},
		{
			"buffer":0,
			"byteLength":9408,
			"byteOffset":96448,
			"target":34963
		},
		{
			"buffer":0,
			"byteLength":6687,
			"byteOffset":105856
		}
	],
	"samplers":[
		{
			"magFilter":9729,
			"minFilter":9987
		}
	],
	"buffers":[
		{
			"byteLength":112544,
			"uri":"data:application/octet-stream;base64,"
		}
	]
}
