{
	"asset":{
		"generator":"Khronos glTF Blender I/O v3.6.28",
		"version":"2.0"
	},
	"scene":0,
	"scenes":[
		{
			"name":"Scene",
			"nodes":[
				0
			]
		}
	],
	"nodes":[
		{
			"mesh":0,
			"name":"Natures_Bush_01",
			"rotation":[
				0.70710688829422,
				0,
				0,
				0.7071066498756409
			],
			"translation":[
				-3.887277126312256,
				0,
				0
			]
		}
	],
	"materials":[
		{
			"doubleSided":true,
			"name":"Material.001",
			"pbrMetallicRoughness":{
				"baseColorTexture":{
					"index":0
				},
				"metallicFactor":0,
				"roughnessFactor":0.5
			}
		}
	],
	"meshes":[
		{
			"name":"Cylinder",
			"primitives":[
				{
					"attributes":{
						"POSITION":0,
						"NORMAL":1,
						"TEXCOORD_0":2
					},
					"indices":3,
					"material":0
				}
			]
		}
	],
	"textures":[
		{
			"sampler":0,
			"source":0
		}
	],
	"images":[
		{
			"bufferView":4,
			"mimeType":"image/png",
			"name":"Natures"
		}
	],
	"accessors":[
		{
			"bufferView":0,
			"componentType":5126,
			"count":134,
			"max":[
				0.628850519657135,
				0.6410487294197083,
				0
			],
			"min":[
				-0.686813235282898,
				-0.6507771015167236,
				-3.0713417530059814
			],
			"type":"VEC3"
		},
		{
			"bufferView":1,
			"componentType":5126,
			"count":134,
			"type":"VEC3"
		},
		{
			"bufferView":2,
			"componentType":5126,
			"count":134,
			"type":"VEC2"
		},
		{
			"bufferView":3,
			"componentType":5123,
			"count":162,
			"type":"SCALAR"
		}
	],
	"bufferViews":[
		{
			"buffer":0,
			"byteLength":1608,
			"byteOffset":0,
			"target":34962
		},
		{
			"buffer":0,
			"byteLength":1608,
			"byteOffset":1608,
			"target":34962
		},
		{
			"buffer":0,
			"byteLength":1072,
			"byteOffset":3216,
			"target":34962
		},
		{
			"buffer":0,
			"byteLength":324,
			"byteOffset":4288,
			"target":34963
		},
		{
			"buffer":0,
			"byteLength":2043,
			"byteOffset":4612
		}
	],
	"samplers":[
		{
			"magFilter":9729,
			"minFilter":9987
		}
	],
	"buffers":[
		{
			"byteLength":6656,
			"uri":"data:application/octet-stream;base64,"
		}
	]
}
