{
	"asset":{
		"generator":"Khronos glTF Blender I/O v3.6.28",
		"version":"2.0"
	},
	"scene":0,
	"scenes":[
		{
			"name":"Scene",
			"nodes":[
				0
			]
		}
	],
	"nodes":[
		{
			"mesh":0,
			"name":"Vehicle_Bus"
		}
	],
	"materials":[
		{
			"doubleSided":true,
			"name":"Material.002",
			"pbrMetallicRoughness":{
				"baseColorTexture":{
					"index":0
				},
				"metallicFactor":0,
				"roughnessFactor":0.5
			}
		}
	],
	"meshes":[
		{
			"name":"Cube.043",
			"primitives":[
				{
					"attributes":{
						"POSITION":0,
						"NORMAL":1,
						"TEXCOORD_0":2
					},
					"indices":3,
					"material":0
				}
			]
		}
	],
	"textures":[
		{
			"sampler":0,
			"source":0
		}
	],
	"images":[
		{
			"bufferView":4,
			"mimeType":"image/png",
			"name":"Vehicle_Bus_1"
		}
	],
	"accessors":[
		{
			"bufferView":0,
			"componentType":5126,
			"count":1234,
			"max":[
				8.34462833404541,
				3.5735108852386475,
				4.601066589355469
			],
			"min":[
				4.650023937225342,
				-0.005056858062744141,
				-4.701428413391113
			],
			"type":"VEC3"
		},
		{
			"bufferView":1,
			"componentType":5126,
			"count":1234,
			"type":"VEC3"
		},
		{
			"bufferView":2,
			"componentType":5126,
			"count":1234,
			"type":"VEC2"
		},
		{
			"bufferView":3,
			"componentType":5123,
			"count":2388,
			"type":"SCALAR"
		}
	],
	"bufferViews":[
		{
			"buffer":0,
			"byteLength":14808,
			"byteOffset":0,
			"target":34962
		},
		{
			"buffer":0,
			"byteLength":14808,
			"byteOffset":14808,
			"target":34962
		},
		{
			"buffer":0,
			"byteLength":9872,
			"byteOffset":29616,
			"target":34962
		},
		{
			"buffer":0,
			"byteLength":4776,
			"byteOffset":39488,
			"target":34963
		},
		{
			"buffer":0,
			"byteLength":6948,
			"byteOffset":44264
		}
	],
	"samplers":[
		{
			"magFilter":9729,
			"minFilter":9987
		}
	],
	"buffers":[
		{
			"byteLength":51212,
			"uri":"data:application/octet-stream;base64,"
		}
	]
}
