{
	"asset":{
		"generator":"Khronos glTF Blender I/O v3.6.28",
		"version":"2.0"
	},
	"scene":0,
	"scenes":[
		{
			"name":"Scene",
			"nodes":[
				0
			]
		}
	],
	"nodes":[
		{
			"mesh":0,
			"name":"Vehicle_Car"
		}
	],
	"materials":[
		{
			"doubleSided":true,
			"name":"Material.007",
			"pbrMetallicRoughness":{
				"baseColorTexture":{
					"index":0
				},
				"metallicFactor":0,
				"roughnessFactor":0.5
			}
		}
	],
	"meshes":[
		{
			"name":"Cube.050",
			"primitives":[
				{
					"attributes":{
						"COLOR_0":0,
						"POSITION":1,
						"NORMAL":2,
						"TEXCOORD_0":3
					},
					"indices":4,
					"material":0
				}
			]
		}
	],
	"textures":[
		{
			"sampler":0,
			"source":0
		}
	],
	"images":[
		{
			"bufferView":5,
			"mimeType":"image/png",
			"name":"Vehicle_Car_1"
		}
	],
	"accessors":[
		{
			"bufferView":0,
			"componentType":5123,
			"count":1187,
			"normalized":true,
			"type":"VEC4"
		},
		{
			"bufferView":1,
			"componentType":5126,
			"count":1187,
			"max":[
				30.12948226928711,
				2.1916048526763916,
				2.966114044189453
			],
			"min":[
				27.171419143676758,
				-0.003636300563812256,
				-3.354428768157959
			],
			"type":"VEC3"
		},
		{
			"bufferView":2,
			"componentType":5126,
			"count":1187,
			"type":"VEC3"
		},
		{
			"bufferView":3,
			"componentType":5126,
			"count":1187,
			"type":"VEC2"
		},
		{
			"bufferView":4,
			"componentType":5123,
			"count":2262,
			"type":"SCALAR"
		}
	],
	"bufferViews":[
		{
			"buffer":0,
			"byteLength":9496,
			"byteOffset":0,
			"target":34962
		},
		{
			"buffer":0,
			"byteLength":14244,
			"byteOffset":9496,
			"target":34962
		},
		{
			"buffer":0,
			"byteLength":14244,
			"byteOffset":23740,
			"target":34962
		},
		{
			"buffer":0,
			"byteLength":9496,
			"byteOffset":37984,
			"target":34962
		},
		{
			"buffer":0,
			"byteLength":4524,
			"byteOffset":47480,
			"target":34963
		},
		{
			"buffer":0,
			"byteLength":7324,
			"byteOffset":52004
		}
	],
	"samplers":[
		{
			"magFilter":9729,
			"minFilter":9987
		}
	],
	"buffers":[
		{
			"byteLength":59328,
			"uri":"data:application/octet-stream;base64,"
		}
	]
}
