{
	"asset":{
		"generator":"Khronos glTF Blender I/O v3.6.28",
		"version":"2.0"
	},
	"scene":0,
	"scenes":[
		{
			"name":"Scene",
			"nodes":[
				0
			]
		}
	],
	"nodes":[
		{
			"mesh":0,
			"name":"Vehicle_Pick up Truck"
		}
	],
	"materials":[
		{
			"doubleSided":true,
			"name":"Material.006",
			"pbrMetallicRoughness":{
				"baseColorTexture":{
					"index":0
				},
				"metallicFactor":0,
				"roughnessFactor":0.5
			}
		}
	],
	"meshes":[
		{
			"name":"Cube.095",
			"primitives":[
				{
					"attributes":{
						"POSITION":0,
						"NORMAL":1,
						"TEXCOORD_0":2
					},
					"indices":3,
					"material":0
				}
			]
		}
	],
	"textures":[
		{
			"sampler":0,
			"source":0
		}
	],
	"images":[
		{
			"bufferView":4,
			"mimeType":"image/png",
			"name":"Vehicle_Pick up Truck_3"
		}
	],
	"accessors":[
		{
			"bufferView":0,
			"componentType":5126,
			"count":1116,
			"max":[
				1.515848159790039,
				2.27498722076416,
				3.134570360183716
			],
			"min":[
				-1.5849285125732422,
				0,
				-2.831172227859497
			],
			"type":"VEC3"
		},
		{
			"bufferView":1,
			"componentType":5126,
			"count":1116,
			"type":"VEC3"
		},
		{
			"bufferView":2,
			"componentType":5126,
			"count":1116,
			"type":"VEC2"
		},
		{
			"bufferView":3,
			"componentType":5123,
			"count":2088,
			"type":"SCALAR"
		}
	],
	"bufferViews":[
		{
			"buffer":0,
			"byteLength":13392,
			"byteOffset":0,
			"target":34962
		},
		{
			"buffer":0,
			"byteLength":13392,
			"byteOffset":13392,
			"target":34962
		},
		{
			"buffer":0,
			"byteLength":8928,
			"byteOffset":26784,
			"target":34962
		},
		{
			"buffer":0,
			"byteLength":4176,
			"byteOffset":35712,
			"target":34963
		},
		{
			"buffer":0,
			"byteLength":6874,
			"byteOffset":39888
		}
	],
	"samplers":[
		{
			"magFilter":9729,
			"minFilter":9987
		}
	],
	"buffers":[
		{
			"byteLength":46764,
			"uri":"data:application/octet-stream;base64,"
		}
	]
}
