{
	"asset":{
		"generator":"Khronos glTF Blender I/O v3.6.28",
		"version":"2.0"
	},
	"scene":0,
	"scenes":[
		{
			"name":"Scene",
			"nodes":[
				0
			]
		}
	],
	"nodes":[
		{
			"mesh":0,
			"name":"Vehicle_Police Car",
			"rotation":[
				0.70710688829422,
				0,
				0,
				0.7071066498756409
			]
		}
	],
	"materials":[
		{
			"doubleSided":true,
			"name":"Material.004",
			"pbrMetallicRoughness":{
				"baseColorTexture":{
					"index":0
				},
				"metallicFactor":0,
				"roughnessFactor":0.5
			}
		}
	],
	"meshes":[
		{
			"name":"Cube.036",
			"primitives":[
				{
					"attributes":{
						"COLOR_0":0,
						"POSITION":1,
						"NORMAL":2,
						"TEXCOORD_0":3
					},
					"indices":4,
					"material":0
				}
			]
		}
	],
	"textures":[
		{
			"sampler":0,
			"source":0
		}
	],
	"images":[
		{
			"bufferView":5,
			"mimeType":"image/png",
			"name":"Vehicle_Police Car"
		}
	],
	"accessors":[
		{
			"bufferView":0,
			"componentType":5123,
			"count":1211,
			"normalized":true,
			"type":"VEC4"
		},
		{
			"bufferView":1,
			"componentType":5126,
			"count":1211,
			"max":[
				1.477238655090332,
				2.9670886993408203,
				0.0036211013793945312
			],
			"min":[
				-1.480823278427124,
				-3.353454113006592,
				-2.314253807067871
			],
			"type":"VEC3"
		},
		{
			"bufferView":2,
			"componentType":5126,
			"count":1211,
			"type":"VEC3"
		},
		{
			"bufferView":3,
			"componentType":5126,
			"count":1211,
			"type":"VEC2"
		},
		{
			"bufferView":4,
			"componentType":5123,
			"count":2298,
			"type":"SCALAR"
		}
	],
	"bufferViews":[
		{
			"buffer":0,
			"byteLength":9688,
			"byteOffset":0,
			"target":34962
		},
		{
			"buffer":0,
			"byteLength":14532,
			"byteOffset":9688,
			"target":34962
		},
		{
			"buffer":0,
			"byteLength":14532,
			"byteOffset":24220,
			"target":34962
		},
		{
			"buffer":0,
			"byteLength":9688,
			"byteOffset":38752,
			"target":34962
		},
		{
			"buffer":0,
			"byteLength":4596,
			"byteOffset":48440,
			"target":34963
		},
		{
			"buffer":0,
			"byteLength":9965,
			"byteOffset":53036
		}
	],
	"samplers":[
		{
			"magFilter":9729,
			"minFilter":9987
		}
	],
	"buffers":[
		{
			"byteLength":63004,
			"uri":"data:application/octet-stream;base64,"
		}
	]
}
